<?xml version="1.0" ?><svg style="enable-background:new 0 0 48 48;" version="1.1" viewBox="0 0 48 48" xml:space="preserve" xmlns="http://www.w3.org/2000/svg" xmlns:xlink="http://www.w3.org/1999/xlink"><g id="Icons"><g><ellipse cx="23.99998" cy="34.73875" rx="2.93345" ry="0.9429" style="fill:#F43734;"/><g><path d="M24.00505,12.31835c-3.7701,0-6.81,3.05-6.81,6.81c0,0.14,0.01,0.28,0.0199,0.42     c0.03,0.56,0.13,1.12,0.31,1.66c0.1701,0.53,0.4,1.03,0.71,1.5c0.0201,0.03,0.2101,0.3,0.5,0.74c0,0,0,0,0.01,0.01     c1.3,1.96,4.73,7.09,4.75,7.12c0.24,0.36,0.7701,0.36,1.0101,0c0.01-0.02,0.0299-0.04,0.0399-0.05     c0.07-0.11,5.11-7.66,5.2701-7.89c0.0399-0.07,0.0899-0.14,0.13-0.21c0.2699-0.46,0.4699-0.95,0.6099-1.46     c0.17-0.6,0.25-1.22,0.25-1.84C30.80495,15.36835,27.75505,12.31835,24.00505,12.31835z M24.17495,22.57835     c-1.5,0.09-2.7899-1.05-2.89-2.55c-0.0899-1.5,1.0501-2.79,2.5401-2.88c1.5-0.1,2.8,1.04,2.8899,2.54     C26.80495,21.18835,25.67495,22.47835,24.17495,22.57835z" style="fill:#F43734;"/><path d="M18.55295,16.72375c0,0,1.5527-3.7647,5.447-3.4889c0,0,1.1516-0.0063,1.1512,0.5481     c-0.0004,0.6544-1.1512,0.4563-1.1512,0.4563S20.60845,13.82745,18.55295,16.72375z" style="fill:#FC6060;"/></g></g></g></svg>